{"title":"Les mille et une Mains (Souheil Ben-Barka, 1973)","uid":13379642,"size":992805992,"categoryP":"video","categoryS":"movies","magnet":"?xt=urn:btih:9889f0525bc79c10187218e308fa730b0a3747a0&amp;dn=Les+mille+et+une+Mains+%28Souheil+Ben-Barka%2C+1973%29&amp;tr=udp%3A%2F%2Ftracker.leechers-paradise.org%3A6969&amp;tr=udp%3A%2F%2Fzer0day.ch%3A1337&amp;tr=udp%3A%2F%2Fopen.demonii.com%3A1337&amp;tr=udp%3A%2F%2Ftracker.coppersurfer.tk%3A6969&amp;tr=udp%3A%2F%2Fexodus.desync.com%3A6969","seeders":1,"leechers":0,"uploader":"moonflux","files":1,"time":1454262138,"description":"In Morocco, an old dyer and his young son Miloud work transporting wool packs. So begins this story in the hands of thousands of old men, women and children involved in meticulous weaving carpets.\r\n\r\nMy rip\r\n\r\nGeneral\r\nUnique ID                                : 216765954539973918029210197426836038832 (0xA3139AB1E979603514ED5C165C5764B0)\r\nComplete name                            :Les.mille.et.une.mains.AKA.A.Thousand.and.One.Hands.1973.DVDRip.x264.mkv\r\nFormat                                   : Matroska\r\nFormat version                           : Version 2\r\nFile size                                : 947 MiB\r\nDuration                                 : 1h 0mn\r\nOverall bit rate                         : 2 202 Kbps\r\nEncoded date                             : UTC 2016-01-31T04:46:27Z\r\nWriting application                      : HandBrake 0.10.3 2016012200\r\nWriting library                          : Lavf55.12.0 / Lavf55.12.0\r\n\r\nVideo\r\nID                                       : 1\r\nFormat                                   : AVC\r\nFormat/Info                              : Advanced Video Codec\r\nFormat profile                           :   \r\nFormat settings, CABAC                   : Yes\r\nFormat settings, ReFrames                : 12 frames\r\nCodec ID                                 : V_MPEG4/ISO/AVC\r\nDuration                                 : 1h 0mn\r\nBit rate                                 : 2 000 Kbps\r\nWidth                                    : 706 pixels\r\nHeight                                   : 478 pixels\r\nDisplay aspect ratio                     : 4:3\r\nOriginal display aspect ratio            : 4:3\r\nFrame rate mode                          : Constant\r\nFrame rate                               : 23.976 (24000/1001) fps\r\nColor space                              : YUV\r\nChroma subsampling                       : 4:2:0\r\nBit depth                                : 8 bits\r\nScan type                                : Progressive\r\nBits/(Pixel*Frame)                       : 0.247\r\nStream size                              : 845 MiB (89%)\r\nWriting library                          : x264 core 142 r2479 dd79a61\r\nEncoding settings                        : cabac=1 / ref=12 / deblock=1:-2:-2 / analyse=0x3:0x133 / me=umh / subme=11 / psy=1 / psy_rd=1.00:0.00 / mixed_ref=1 / me_range=32 / chroma_me=1 / trellis=2 / 8x8dct=1 / cqm=0 / deadzone=21,11 / fast_pskip=0 / chroma_qp_offset=-2 / threads=12 / lookahead_threads=2 / sliced_threads=0 / nr=0 / decimate=1 / interlaced=0 / bluray_compat=0 / constrained_intra=0 / bframes=9 / b_pyramid=2 / b_adapt=2 / b_bias=0 / direct=3 / weightb=1 / open_gop=0 / weightp=2 / keyint=240 / keyint_min=24 / scenecut=40 / intra_refresh=0 / rc_lookahead=60 / rc=2pass / mbtree=1 / bitrate=2000 / ratetol=1.0 / qcomp=0.60 / qpmin=0 / qpmax=69 / qpstep=4 / cplxblur=20.0 / qblur=0.5 / ip_ratio=1.40 / aq=2:1.00\r\nDefault                                  : Yes\r\nForced                                   : No\r\nColor range                              : Limited\r\nColor primaries                          : BT.601 NTSC\r\nTransfer characteristics                 : BT.709\r\nMatrix coefficients                      : BT.601\r\n\r\nAudio\r\nID                                       : 2\r\nFormat                                   : AC-3\r\nFormat/Info                              : Audio Coding 3\r\nMode extension                           : CM (complete main)\r\nFormat settings, Endianness              : Big\r\nCodec ID                                 : A_AC3\r\nDuration                                 : 1h 0mn\r\nBit rate mode                            : Constant\r\nBit rate                                 : 192 Kbps\r\nChannel(s)                               : 2 channels\r\nChannel positions                        : Front: L R\r\nSampling rate                            : 48.0 KHz\r\nFrame rate                               : 31.250 fps (1536 spf)\r\nCompression mode                         : Lossy\r\nStream size                              : 82.5 MiB (9%)\r\nTitle                                    : Stereo\r\nLanguage                                 : Arabic\r\nDefault                                  : Yes\r\nForced                                   : No","torrent":{"xt":"urn:btih:9889f0525bc79c10187218e308fa730b0a3747a0","amp;dn":"Les+mille+et+une+Mains+%28Souheil+Ben-Barka%2C+1973%29","amp;tr":["udp%3A%2F%2Ftracker.leechers-paradise.org%3A6969","udp%3A%2F%2Fzer0day.ch%3A1337","udp%3A%2F%2Fopen.demonii.com%3A1337","udp%3A%2F%2Ftracker.coppersurfer.tk%3A6969","udp%3A%2F%2Fexodus.desync.com%3A6969"],"infoHash":"9889f0525bc79c10187218e308fa730b0a3747a0","infoHashBuffer":{"type":"Buffer","data":[152,137,240,82,91,199,156,16,24,114,24,227,8,250,115,11,10,55,71,160]},"announce":[],"urlList":[]}}